<svg width="25" height="25" viewBox="0 0 25 25" fill="none" xmlns="http://www.w3.org/2000/svg">
<rect width="24" height="24" transform="translate(0.330078 0.330078)" fill="#E67E22"/>
<path d="M20.3303 11.3291H22.3303C22.3303 6.19908 18.4573 2.33008 13.3203 2.33008V4.33008C17.3823 4.33008 20.3303 7.27308 20.3303 11.3291Z" fill="#2C3E50"/>
<path d="M13.3299 8.33032C15.4329 8.33032 16.3299 9.22732 16.3299 11.3303H18.3299C18.3299 8.10532 16.5549 6.33032 13.3299 6.33032V8.33032ZM16.7519 13.7733C16.5597 13.5987 16.3072 13.5055 16.0477 13.5135C15.7881 13.5216 15.5419 13.6301 15.3609 13.8163L12.9679 16.2773C12.3919 16.1673 11.2339 15.8063 10.0419 14.6173C8.84987 13.4243 8.48887 12.2633 8.38187 11.6913L10.8409 9.29732C11.0273 9.11644 11.136 8.87014 11.144 8.61052C11.1521 8.35091 11.0588 8.09836 10.8839 7.90632L7.18887 3.84332C7.01391 3.65067 6.77075 3.53382 6.51102 3.51758C6.2513 3.50133 5.99547 3.58698 5.79787 3.75632L3.62787 5.61732C3.45498 5.79083 3.35179 6.02177 3.33787 6.26632C3.32287 6.51632 3.03687 12.4383 7.62887 17.0323C11.6349 21.0373 16.6529 21.3303 18.0349 21.3303C18.2369 21.3303 18.3609 21.3243 18.3939 21.3223C18.6384 21.3086 18.8692 21.205 19.0419 21.0313L20.9019 18.8603C21.0713 18.6628 21.1572 18.4071 21.1411 18.1474C21.125 17.8876 21.0084 17.6444 20.8159 17.4693L16.7519 13.7733V13.7733Z" fill="#2C3E50"/>
</svg>
