<svg width="48" height="48" viewBox="0 0 48 48" fill="none" xmlns="http://www.w3.org/2000/svg">
<path d="M34.5 3L25.5 12L27.6225 14.103L33 8.727V42H9V18H6V42C6.00079 42.7954 6.31712 43.558 6.87956 44.1204C7.44199 44.6829 8.20459 44.9992 9 45H33C33.7954 44.9992 34.558 44.6829 35.1204 44.1204C35.6829 43.558 35.9992 42.7954 36 42V8.7225L41.379 14.103L43.5 12L34.5 3Z" fill="#E67E22"/>
<path d="M24 36H18C17.2046 35.9992 16.442 35.6829 15.8796 35.1204C15.3171 34.558 15.0008 33.7954 15 33V27C15.0008 26.2046 15.3171 25.442 15.8796 24.8796C16.442 24.3171 17.2046 24.0008 18 24H24C24.7954 24.0008 25.558 24.3171 26.1204 24.8796C26.6829 25.442 26.9992 26.2046 27 27V33C26.9992 33.7954 26.6829 34.558 26.1204 35.1204C25.558 35.6829 24.7954 35.9992 24 36ZM18 27V33H24V27H18Z" fill="#E67E22"/>
</svg>
