<svg width="48" height="48" viewBox="0 0 48 48" fill="none" xmlns="http://www.w3.org/2000/svg">
<path d="M34.5 34.5V39H12.75C10.9598 39 9.2429 38.2888 7.97703 37.023C6.71116 35.7571 6 34.0402 6 32.25C6 30.4598 6.71116 28.7429 7.97703 27.477C9.2429 26.2112 10.9598 25.5 12.75 25.5H13.5V22.5H12.75C10.1641 22.5 7.68419 23.5272 5.85571 25.3557C4.02723 27.1842 3 29.6641 3 32.25C3 34.8359 4.02723 37.3158 5.85571 39.1443C7.68419 40.9728 10.1641 42 12.75 42H34.5V46.5H46.5V34.5H34.5ZM43.5 43.5H37.5V37.5H43.5V43.5Z" fill="#3498DB"/>
<path d="M31.5 33H28.5V28.5H19.5V33H16.5V28.5C16.5008 27.7046 16.8171 26.942 17.3796 26.3796C17.942 25.8171 18.7046 25.5008 19.5 25.5H28.5C29.2954 25.5008 30.058 25.8171 30.6204 26.3796C31.1829 26.942 31.4992 27.7046 31.5 28.5V33ZM24 24C23.11 24 22.24 23.7361 21.4999 23.2416C20.7599 22.7471 20.1831 22.0443 19.8425 21.2221C19.5019 20.3998 19.4128 19.495 19.5865 18.6221C19.7601 17.7492 20.1887 16.9474 20.818 16.318C21.4474 15.6887 22.2492 15.2601 23.1221 15.0865C23.995 14.9128 24.8998 15.0019 25.7221 15.3425C26.5443 15.6831 27.2471 16.2599 27.7416 16.9999C28.2361 17.74 28.5 18.61 28.5 19.5C28.4988 20.6931 28.0243 21.837 27.1807 22.6807C26.337 23.5243 25.1931 23.9988 24 24ZM24 18C23.7033 18 23.4133 18.088 23.1666 18.2528C22.92 18.4176 22.7277 18.6519 22.6142 18.926C22.5006 19.2001 22.4709 19.5017 22.5288 19.7926C22.5867 20.0836 22.7296 20.3509 22.9393 20.5607C23.1491 20.7704 23.4164 20.9133 23.7074 20.9712C23.9983 21.0291 24.2999 20.9994 24.574 20.8858C24.8481 20.7723 25.0824 20.58 25.2472 20.3334C25.412 20.0867 25.5 19.7967 25.5 19.5C25.4996 19.1023 25.3414 18.721 25.0602 18.4398C24.779 18.1586 24.3977 18.0004 24 18Z" fill="#3498DB"/>
<path d="M35.25 6H13.5V1.5H1.5V13.5H13.5V9H35.25C37.0402 9 38.7571 9.71116 40.023 10.977C41.2888 12.2429 42 13.9598 42 15.75C42 17.5402 41.2888 19.2571 40.023 20.523C38.7571 21.7888 37.0402 22.5 35.25 22.5H34.5V25.5H35.25C37.8359 25.5 40.3158 24.4728 42.1443 22.6443C43.9728 20.8158 45 18.3359 45 15.75C45 13.1641 43.9728 10.6842 42.1443 8.85571C40.3158 7.02723 37.8359 6 35.25 6ZM10.5 10.5H4.5V4.5H10.5V10.5Z" fill="#3498DB"/>
</svg>
