<svg width="25" height="25" viewBox="0 0 25 25" fill="none" xmlns="http://www.w3.org/2000/svg">
<path d="M12.3301 1.83008C10.1428 1.83266 8.04592 2.70268 6.49931 4.2493C4.95269 5.79591 4.08267 7.89283 4.08009 10.0801C4.07747 11.8675 4.66132 13.6064 5.74209 15.0301C5.74209 15.0301 5.96709 15.3263 6.00384 15.3691L12.3301 22.8301L18.6593 15.3653C18.6923 15.3256 18.9181 15.0301 18.9181 15.0301L18.9188 15.0278C19.9991 13.6048 20.5827 11.8667 20.5801 10.0801C20.5775 7.89283 19.7075 5.79591 18.1609 4.2493C16.6143 2.70268 14.5173 1.83266 12.3301 1.83008V1.83008ZM12.3301 13.0801C11.7367 13.0801 11.1567 12.9041 10.6634 12.5745C10.17 12.2448 9.78551 11.7763 9.55845 11.2281C9.33139 10.68 9.27198 10.0768 9.38773 9.49481C9.50349 8.91286 9.78921 8.37832 10.2088 7.95876C10.6283 7.5392 11.1629 7.25348 11.7448 7.13772C12.3268 7.02197 12.93 7.08138 13.4781 7.30844C14.0263 7.5355 14.4949 7.92002 14.8245 8.41337C15.1541 8.90672 15.3301 9.48673 15.3301 10.0801C15.3291 10.8754 15.0127 11.6379 14.4503 12.2003C13.8879 12.7627 13.1254 13.0791 12.3301 13.0801V13.0801Z" fill="#E67E22"/>
</svg>
