<svg width="48" height="48" viewBox="0 0 48 48" fill="none" xmlns="http://www.w3.org/2000/svg">
<path d="M10 26V44H6V26H10ZM46 26V30H42V44H38V30H34V26H46ZM24 22C26.8023 22.0149 29.5449 22.8107 31.92 24.298L34.814 21.398C31.6378 19.1939 27.866 18.0088 24 18C20.1854 18.0075 16.4641 19.1798 13.334 21.36L16.232 24.266C18.5588 22.7998 21.2498 22.0148 24 22Z" fill="#3498DB"/>
<path d="M23.9999 14C28.9246 14.0102 33.7158 15.6017 37.6679 18.54L40.5219 15.68C35.7978 12.0052 29.9851 10.0069 23.9999 10C18.0667 10.0075 12.3054 11.9936 7.62793 15.644L10.4799 18.504C14.3858 15.5894 19.1265 14.0102 23.9999 14Z" fill="#3498DB"/>
<path d="M23.9999 5.99996C31.0461 6.00105 37.8808 8.40701 43.3739 12.82L46.2279 9.96196C39.9915 4.8207 32.1624 2.00621 24.08 2.00001C15.9976 1.99381 8.1642 4.79628 1.91992 9.92796L4.77392 12.786C10.2207 8.39668 17.0047 6.00219 23.9999 5.99996ZM23.9999 26C22.2199 26 20.4798 26.5278 18.9998 27.5167C17.5197 28.5057 16.3662 29.9113 15.685 31.5558C15.0038 33.2003 14.8256 35.01 15.1729 36.7558C15.5201 38.5016 16.3773 40.1053 17.636 41.3639C18.8946 42.6226 20.4983 43.4798 22.2441 43.827C23.9899 44.1743 25.7995 43.9961 27.4441 43.3149C29.0886 42.6337 30.4942 41.4801 31.4831 40.0001C32.4721 38.5201 32.9999 36.78 32.9999 35C32.9999 32.613 32.0517 30.3238 30.3639 28.636C28.6761 26.9482 26.3869 26 23.9999 26ZM23.9999 40C23.011 40 22.0443 39.7067 21.2221 39.1573C20.3998 38.6079 19.759 37.827 19.3805 36.9134C19.0021 35.9998 18.9031 34.9944 19.096 34.0245C19.2889 33.0546 19.7651 32.1637 20.4644 31.4644C21.1637 30.7652 22.0546 30.289 23.0245 30.096C23.9944 29.9031 24.9997 30.0021 25.9133 30.3806C26.827 30.759 27.6079 31.3999 28.1573 32.2221C28.7067 33.0444 28.9999 34.0111 28.9999 35C28.9999 36.326 28.4731 37.5978 27.5355 38.5355C26.5978 39.4732 25.326 40 23.9999 40Z" fill="#3498DB"/>
</svg>
