<svg width="48" height="48" viewBox="0 0 48 48" fill="none" xmlns="http://www.w3.org/2000/svg">
<path d="M13.636 44V38.286C13.04 32.332 6 29.144 6 20C6 10.86 11.454 3.88799 22.364 3.99999C30.218 4.08399 37.636 8.57199 37.636 17.716L42 24.572C42 29.144 37.636 29.144 37.636 29.144C37.636 29.144 38.728 40.572 28.908 40.572V44" stroke="#2C3E50" stroke-width="3" stroke-linecap="round" stroke-linejoin="round"/>
<path d="M22 24C23.0609 24 24.0783 23.5786 24.8284 22.8284C25.5786 22.0783 26 21.0609 26 20C26 18.9391 25.5786 17.9217 24.8284 17.1716C24.0783 16.4214 23.0609 16 22 16C20.9391 16 19.9217 16.4214 19.1716 17.1716C18.4214 17.9217 18 18.9391 18 20C18 21.0609 18.4214 22.0783 19.1716 22.8284C19.9217 23.5786 20.9391 24 22 24Z" stroke="#2C3E50" stroke-width="3" stroke-linecap="round" stroke-linejoin="round"/>
<path d="M22 26C23.5913 26 25.1174 25.3679 26.2426 24.2426C27.3679 23.1174 28 21.5913 28 20C28 18.4087 27.3679 16.8826 26.2426 15.7574C25.1174 14.6321 23.5913 14 22 14C20.4087 14 18.8826 14.6321 17.7574 15.7574C16.6321 16.8826 16 18.4087 16 20C16 21.5913 16.6321 23.1174 17.7574 24.2426C18.8826 25.3679 20.4087 26 22 26Z" stroke="#2C3E50" stroke-width="3" stroke-linecap="round" stroke-linejoin="round"/>
</svg>
