<svg width="48" height="48" viewBox="0 0 48 48" fill="none" xmlns="http://www.w3.org/2000/svg">
<path d="M27.9066 3.03374L24.5219 20.817L36.7836 20.8583L20.0931 44.9662L23.4779 25.4017L11.2169 25.359L27.9066 3.03374ZM27.9089 0.0337852C27.8279 0.0337852 27.7469 0.0367383 27.6674 0.0426914C27.1379 0.0854883 26.7869 0.262488 26.3707 0.542238C26.1363 0.698491 25.925 0.886823 25.7429 1.10174C25.6882 1.16624 25.6366 1.23332 25.5884 1.30274L8.7786 23.55C8.11485 24.4597 8.01735 25.6605 8.52735 26.664C9.0366 27.6675 10.0664 28.3035 11.1951 28.3118L19.8546 28.3748L17.1321 44.415C16.8734 45.7935 17.6084 47.1675 18.9021 47.721C19.2781 47.8826 19.6831 47.9658 20.0923 47.9655C21.0351 47.9655 21.8098 47.5245 22.3911 46.728L39.2219 22.62C39.8856 21.7102 39.9824 20.5079 39.4731 19.5059C38.9639 18.5024 37.9341 17.8664 36.8054 17.8582L28.1459 17.8432L30.8391 3.73944C30.8962 3.50854 30.9249 3.27154 30.9246 3.03369C30.9246 1.41069 29.6324 0.0876914 28.0154 0.0351914C27.9794 0.0336914 27.9441 0.0336914 27.9089 0.0336914L27.9089 0.0337852Z" fill="#3498DB"/>
</svg>
