<svg width="14" height="14" viewBox="0 0 14 14" fill="none" xmlns="http://www.w3.org/2000/svg">
<g clip-path="url(#clip0_50_2622)">
<path fill-rule="evenodd" clip-rule="evenodd" d="M0.173828 6.86901C0.173828 5.05526 0.881235 3.3158 2.14043 2.03329C3.39962 0.750781 5.10745 0.0302734 6.88822 0.0302734C8.66899 0.0302734 10.3768 0.750781 11.636 2.03329C12.8952 3.3158 13.6026 5.05526 13.6026 6.86901C13.6026 8.68275 12.8952 10.4222 11.636 11.7047C10.3768 12.9872 8.66899 13.7077 6.88822 13.7077C5.10745 13.7077 3.39962 12.9872 2.14043 11.7047C0.881235 10.4222 0.173828 8.68275 0.173828 6.86901H0.173828ZM6.50505 9.79598L10.3708 4.87392L9.67246 4.30494L6.37614 8.50027L4.04132 6.51886L3.46836 7.21915L6.50505 9.7969V9.79598Z" fill="black"/>
</g>
<defs>
<clipPath id="clip0_50_2622">
<rect width="13.4288" height="13.6775" fill="white" transform="translate(0.173828 0.0302734)"/>
</clipPath>
</defs>
</svg>
